<svg xmlns="http://www.w3.org/2000/svg" width="119.429" height="34.266" viewBox="0 0 119.429 34.266">
  <g id="Logo_6" data-name="Logo 6" transform="translate(-302.666 40.378)">
    <path id="path24" d="M386.322-31.716a1.437,1.437,0,0,0-1.439,1.437v2.239a1.741,1.741,0,0,1,1.439-.761h1.436v-1.478A1.435,1.435,0,0,0,386.322-31.716Zm-48.832,0a1.438,1.438,0,0,0-1.437,1.437v2.239a1.742,1.742,0,0,1,1.437-.761h1.439v-1.478A1.438,1.438,0,0,0,337.49-31.716Zm68.36,0a1.438,1.438,0,0,0-1.439,1.437v2.239a1.744,1.744,0,0,1,1.439-.761h1.437v-1.478A1.437,1.437,0,0,0,405.85-31.716Zm-87.856-8.229a1.487,1.487,0,0,0,0,2.1,1.484,1.484,0,0,0,2.1,0,1.485,1.485,0,0,0,0-2.1A1.487,1.487,0,0,0,317.994-39.945Zm-.075,28.634c-.4.4-.759.758-1.143,1.139-1.537-1.542-8.515-8.535-10.053-10.08l6.007-5.993a26.377,26.377,0,0,1,.505-4.555L302.666-20.256,316.773-6.112l3.38-3.373a3.128,3.128,0,0,1-1.259-.77c-.34-.342-.661-.7-.975-1.056" fill="#fff"/>
    <path id="path26" d="M397.5-21.316l-1.976-.6c-1.06-.318-2.833-.849-3.045-1.261.007-.518,1.373-1.486,3.609-1.486a6.038,6.038,0,0,1,3.556,1.221,1.437,1.437,0,0,0,2.025-.163,1.442,1.442,0,0,0-.16-2.028,8.826,8.826,0,0,0-5.421-1.9c-3.692,0-6.476,1.877-6.476,4.366s2.584,3.257,5.083,4.009l1.976.6c1.055.317,2.82.846,3.024,1.249,0,.525-1.371,1.491-3.607,1.491a5.619,5.619,0,0,1-3.841-1.5,1.434,1.434,0,0,0-2.024-.152,1.436,1.436,0,0,0-.153,2.027,8.414,8.414,0,0,0,6.019,2.5c3.7,0,6.481-1.878,6.481-4.367s-2.579-3.253-5.069-4Zm-12.613-4.557v11.308a1.438,1.438,0,0,0,1.439,1.437,1.437,1.437,0,0,0,1.436-1.437V-27.31h-1.436A1.437,1.437,0,0,0,384.883-25.873Zm19.528,0v11.308a1.439,1.439,0,0,0,1.439,1.437,1.439,1.439,0,0,0,1.437-1.437V-27.31H405.85A1.438,1.438,0,0,0,404.411-25.873ZM382.759-15.8c-.987-.587-1.051-.943-1.028-3.146l.005-.843V-33.88H380.3a1.44,1.44,0,0,0-1.44,1.437v12.651l-.005.81c-.023,2.245-.044,4.184,2.443,5.655a1.438,1.438,0,0,0,1.969-.508,1.435,1.435,0,0,0-.508-1.968Zm34.263-5.513-1.972-.6c-1.059-.318-2.832-.849-3.045-1.261.005-.518,1.372-1.486,3.609-1.486a5.948,5.948,0,0,1,3.556,1.221,1.44,1.44,0,0,0,2.028-.163,1.439,1.439,0,0,0-.167-2.027,8.817,8.817,0,0,0-5.417-1.9c-3.7,0-6.48,1.877-6.48,4.366s2.585,3.257,5.088,4.009l1.975.6c1.053.317,2.82.846,3.025,1.249,0,.525-1.373,1.491-3.608,1.491a5.63,5.63,0,0,1-3.843-1.5,1.436,1.436,0,0,0-2.025-.152,1.435,1.435,0,0,0-.153,2.027,8.43,8.43,0,0,0,6.021,2.5c3.693,0,6.481-1.878,6.481-4.367s-2.58-3.253-5.073-4Zm-58.48.61v-3.731h2.4a1.437,1.437,0,0,0,1.436-1.436,1.438,1.438,0,0,0-1.436-1.437h-2.4v-2.969a1.437,1.437,0,0,0-1.436-1.437h-1.44v4.406h-4.589a9.249,9.249,0,0,1,2.775,2.873h1.815v3.731l0,.813c-.037,3.211.169,5.1,4.816,6.69a1.438,1.438,0,0,0,1.823-.9,1.436,1.436,0,0,0-.9-1.826c-2.9-.988-2.9-1.324-2.868-3.937Zm-22.489-5.167v11.308a1.44,1.44,0,0,0,1.437,1.437,1.439,1.439,0,0,0,1.439-1.437V-27.31H337.49A1.439,1.439,0,0,0,336.052-25.873Zm10.191-1.437h-5.467v12.745a1.437,1.437,0,0,0,1.439,1.437,1.437,1.437,0,0,0,1.435-1.437v-9.872h2.593a4.709,4.709,0,0,1,4.7,4.705v5.167a1.438,1.438,0,0,0,1.436,1.437h1.439v-6.6A7.587,7.587,0,0,0,346.243-27.31Zm19.383,5.566a4.315,4.315,0,0,1,4.057-2.87,4.3,4.3,0,0,1,4.039,2.87Zm4.057-5.744a7.186,7.186,0,0,0-7.181,7.18,7.188,7.188,0,0,0,7.181,7.181h3.767a1.439,1.439,0,0,0,1.437-1.437A1.438,1.438,0,0,0,373.45-16h-3.767a4.23,4.23,0,0,1-4.057-3.11h11.236v-1.2A7.186,7.186,0,0,0,369.683-27.488Zm-49.837-3.829a21.213,21.213,0,0,0-.677,3.382l7.687,7.71c-1.573,1.569-4.535,4.526-5.679,5.663-3.912-4.7-4.932-11.385-2.692-18.2a1.429,1.429,0,0,0-.348-1.461,1.406,1.406,0,0,0-.567-.349,1.432,1.432,0,0,0-1.809.914c-2.761,8.394-1.133,16.688,4.351,22.185a1.433,1.433,0,0,0,2.028,0l7.759-7.74a1.434,1.434,0,0,0,0-2.03L319.846-31.317" fill="#fff"/>
  </g>
</svg>
